<?xml version="1.0" encoding="UTF-8"?>
<!-- Generator: Adobe Illustrator 13.0.0, SVG Export Plug-In . SVG Version: 6.00 Build 14948)  -->
<!DOCTYPE svg PUBLIC "-//W3C//DTD SVG 1.1//EN" "http://www.w3.org/Graphics/SVG/1.1/DTD/svg11.dtd">
<svg version="1.1" id="Layer_2" xmlns:x="http://ns.adobe.com/Extensibility/1.0/" xmlns:i="http://ns.adobe.com/AdobeIllustrator/10.0/" xmlns:graph="http://ns.adobe.com/Graphs/1.0/" xmlns="http://www.w3.org/2000/svg" xmlns:xlink="http://www.w3.org/1999/xlink" x="0px" y="0px" width="229.15137px" height="294.5px" viewBox="-19.08789 -125.14917 229.15137 294.5" enable-background="new -19.08789 -125.14917 229.15137 294.5" xml:space="preserve">
<metadata>
	<sfw xmlns="http://ns.adobe.com/SaveForWeb/1.0/">
		<slices/>
		<sliceSourceBounds x="418.04898" y="305.74783" width="229.15109" height="294.50027" bottomLeftOrigin="true">
			</sliceSourceBounds>
	</sfw>
</metadata>
<g enable-background="new    ">
	<defs>
		<path id="SVGID_1_" enable-background="new    " d="M205.34863-40.52466l-15.87891,4.53467    c-0.32129,0.0918-0.65332,0.1582-0.99512,0.19824l15.87793-4.53516C204.69434-40.36597,205.02734-40.43286,205.34863-40.52466z"/>
	</defs>
	<clipPath id="SVGID_2_">
		<use xlink:href="#SVGID_1_" overflow="visible"/>
	</clipPath>
	<g clip-path="url(#SVGID_2_)" enable-background="new    ">
		<path fill="#484848" d="M205.34863-40.52466l-15.87891,4.53467c-0.32129,0.0918-0.65332,0.1582-0.99512,0.19824l15.87793-4.53516    C204.69434-40.36597,205.02734-40.43286,205.34863-40.52466"/>
	</g>
</g>
<g>
	<polygon fill="#484848" points="204.35254,-40.3269 188.47461,-35.79175 186.47168,-35.56226 202.34961,-40.09644  "/>
</g>
<g enable-background="new    ">
	<defs>
		<path id="SVGID_3_" enable-background="new    " d="M185.35059-35.33667l15.87891-4.53516    c0.36914-0.10547,0.74414-0.18164,1.12012-0.22461l-15.87793,4.53418C186.09473-35.51831,185.7207-35.44312,185.35059-35.33667z"/>
	</defs>
	<clipPath id="SVGID_4_">
		<use xlink:href="#SVGID_3_" overflow="visible"/>
	</clipPath>
	<g clip-path="url(#SVGID_4_)" enable-background="new    ">
		<path fill="#484848" d="M202.34961-40.09644l-15.87793,4.53418c-0.37695,0.04395-0.75098,0.11914-1.12109,0.22559    l15.87891-4.53516C201.59863-39.97729,201.97363-40.05347,202.34961-40.09644"/>
	</g>
</g>
<g enable-background="new    ">
	<defs>
		<path id="SVGID_5_" enable-background="new    " d="M153.12305-108.4646c5.29297-1.51172,10.58594-3.02295,15.87891-4.53467    c-1.30078,0.37158-2.49316,1.16553-3.37109,2.3584l-15.87793,4.53467C150.63086-107.29956,151.82227-108.09351,153.12305-108.4646    z"/>
	</defs>
	<clipPath id="SVGID_6_">
		<use xlink:href="#SVGID_5_" overflow="visible"/>
	</clipPath>
	<g clip-path="url(#SVGID_6_)" enable-background="new    ">
		<path fill="#484848" d="M165.63086-110.64087l-15.87793,4.53467c0.13281-0.18066,0.27344-0.35254,0.41992-0.51465    l15.87793-4.53467C165.9043-110.99292,165.76465-110.82153,165.63086-110.64087"/>
		<path fill="#494949" d="M166.05078-111.15552l-15.87793,4.53467c0.4082-0.45166,0.86621-0.83154,1.3584-1.13818l15.87891-4.53467    C166.91699-111.98706,166.45898-111.60718,166.05078-111.15552"/>
		<path fill="#4A4A4A" d="M167.41016-112.2937l-15.87891,4.53467c0.20215-0.12549,0.40918-0.23877,0.62109-0.33936l15.87891-4.53467    C167.81836-112.53198,167.61133-112.41919,167.41016-112.2937"/>
		<path fill="#4A4A4A" d="M168.03125-112.63306l-15.87891,4.53467c0.1709-0.08105,0.34375-0.1543,0.52051-0.21924l15.87793-4.53467    C168.375-112.78687,168.20117-112.71411,168.03125-112.63306"/>
		<path fill="#4B4B4B" d="M168.55078-112.85229l-15.87793,4.53467c0.14844-0.05469,0.29883-0.104,0.4502-0.14697l15.87891-4.53467    C168.84961-112.95581,168.69922-112.90698,168.55078-112.85229"/>
	</g>
</g>
<g>
	<polygon fill="#494949" points="164.10547,-108.56616 148.22656,-104.03149 149.75293,-106.1062 165.63086,-110.64087  "/>
</g>
<g enable-background="new    ">
	<defs>
		<path id="SVGID_7_" enable-background="new    " d="M159.45996-105.47144l-15.87793,4.53467    c1.85156-0.52881,3.54785-1.60205,4.64453-3.09473l15.87891-4.53467C163.00781-107.07349,161.31152-106.00024,159.45996-105.47144    z"/>
	</defs>
	<clipPath id="SVGID_8_">
		<use xlink:href="#SVGID_7_" overflow="visible"/>
	</clipPath>
	<g clip-path="url(#SVGID_8_)" enable-background="new    ">
		<path fill="#4B4B4B" d="M159.45996-105.47144l-15.87793,4.53467c0.23633-0.06787,0.47168-0.14453,0.70313-0.22998    l15.87793-4.53418C159.93164-105.61597,159.69727-105.53882,159.45996-105.47144"/>
		<path fill="#4A4A4A" d="M160.16309-105.70093l-15.87793,4.53418c0.27051-0.1001,0.53711-0.21191,0.79785-0.33594l15.87793-4.53418    C160.70117-105.91333,160.43457-105.80151,160.16309-105.70093"/>
		<path fill="#4A4A4A" d="M160.96094-106.03687l-15.87793,4.53418c0.31738-0.15088,0.62598-0.31885,0.92188-0.50293    l15.87793-4.53467C161.58691-106.3562,161.2793-106.18823,160.96094-106.03687"/>
		<path fill="#494949" d="M161.88281-106.54028l-15.87793,4.53467c0.61426-0.38281,1.17578-0.83594,1.66113-1.35254    l15.87891-4.53467C163.05957-107.37622,162.49707-106.9231,161.88281-106.54028"/>
		<path fill="#484848" d="M163.54492-107.89282l-15.87891,4.53467c0.20117-0.21387,0.38867-0.43848,0.56055-0.67334    l15.87891-4.53467C163.93262-108.3313,163.74512-108.10669,163.54492-107.89282"/>
	</g>
</g>
<g enable-background="new    ">
	<defs>
		<path id="SVGID_9_" enable-background="new    " d="M187.51465,10.69556l-15.87891,4.53418    c-0.33203,0.09473-0.6709,0.16211-1.01465,0.20215c-1.68555,0.19336-3.45996-0.28516-4.91992-1.48438l15.87793-4.53418    c1.45996,1.19824,3.23535,1.67773,4.9209,1.4834C186.84277,10.85767,187.18262,10.79028,187.51465,10.69556z"/>
	</defs>
	<clipPath id="SVGID_10_">
		<use xlink:href="#SVGID_9_" overflow="visible"/>
	</clipPath>
	<g clip-path="url(#SVGID_10_)" enable-background="new    ">
		<path fill="#484848" d="M187.51465,10.69556l-15.87891,4.53418c-0.33203,0.09473-0.6709,0.16211-1.01465,0.20215    c-1.68555,0.19336-3.45996-0.28516-4.91992-1.48438l15.87793-4.53418c1.45996,1.19824,3.23535,1.67773,4.9209,1.4834    C186.84277,10.85767,187.18262,10.79028,187.51465,10.69556"/>
	</g>
</g>
<g>
	<polygon fill="#4A4A4A" points="181.5791,9.41333 165.70117,13.94751 164.32422,12.81274 180.20215,8.27759  "/>
</g>
<g enable-background="new    ">
	<defs>
		<path id="SVGID_11_" enable-background="new    " d="M156.03906,11.22192c5.29297-1.51172,10.58496-3.02344,15.87793-4.53516    c0.46973-0.13379,0.95508-0.22852,1.44824-0.28613c2.40625-0.27637,4.99902,0.36426,6.83691,1.87695l-15.87793,4.53516    c-1.83789-1.51367-4.43164-2.15332-6.83789-1.87695C156.99316,10.99243,156.50781,11.08716,156.03906,11.22192z"/>
	</defs>
	<clipPath id="SVGID_12_">
		<use xlink:href="#SVGID_11_" overflow="visible"/>
	</clipPath>
	<g clip-path="url(#SVGID_12_)" enable-background="new    ">
		<path fill="#484848" d="M180.20215,8.27759l-15.87793,4.53516c-1.83789-1.51367-4.43164-2.15332-6.83789-1.87695    c-0.49316,0.05664-0.97852,0.15137-1.44727,0.28613l15.87793-4.53516c0.46973-0.13379,0.95508-0.22852,1.44824-0.28613    C175.77148,6.12427,178.36426,6.76489,180.20215,8.27759"/>
	</g>
</g>
<g enable-background="new    ">
	<defs>
		<path id="SVGID_13_" enable-background="new    " d="M146.86914-5.52612l-15.87891,4.53418    c18.375-5.24707,30.47754-24.03516,27.73145-44.7041c-3.03613-22.854-23.0752-39.35693-44.75391-36.86426    c-2.07324,0.23828-4.08691,0.64209-6.03027,1.19678l15.87891-4.53467c1.94336-0.55469,3.95605-0.95801,6.0293-1.19678    c21.67871-2.49268,41.71875,14.01025,44.75488,36.86426C177.3457-29.56128,165.24414-10.77417,146.86914-5.52612z"/>
	</defs>
	<clipPath id="SVGID_14_">
		<use xlink:href="#SVGID_13_" overflow="visible"/>
	</clipPath>
	<g clip-path="url(#SVGID_14_)" enable-background="new    ">
		<path fill="#4B4B4B" d="M146.86914-5.52612l-15.87891,4.53418c0.90723-0.25879,1.79883-0.55078,2.67383-0.87402l15.87891-4.53516    C148.66797-6.0769,147.77539-5.78491,146.86914-5.52612"/>
		<path fill="#4A4A4A" d="M149.54297-6.40112l-15.87891,4.53516c1.0498-0.3877,2.0752-0.82129,3.07617-1.29785L152.61816-7.698    C151.61816-7.22144,150.5918-6.78882,149.54297-6.40112"/>
		<path fill="#4A4A4A" d="M152.61816-7.698l-15.87793,4.53418c1.29883-0.61816,2.55664-1.30859,3.7666-2.06738l15.87891-4.53418    C155.1748-9.00757,153.91797-8.31616,152.61816-7.698"/>
		<path fill="#494949" d="M156.38574-9.76538L140.50684-5.2312c2.87207-1.79883,5.4834-3.97559,7.78125-6.45996l15.87793-4.53418    C161.86816-13.74097,159.25781-11.56421,156.38574-9.76538"/>
		<path fill="#484848" d="M164.16602-16.22534l-15.87793,4.53418c1.31641-1.42383,2.53125-2.94922,3.63281-4.5625l15.87793-4.53418    C166.69727-19.17554,165.4834-17.65015,164.16602-16.22534"/>
		<path fill="#494949" d="M167.79883-20.78784l-15.87793,4.53418c5.5625-8.14648,8.25-18.53223,6.80078-29.44238    c-1.4873-11.19775-7.05664-20.87061-14.90137-27.53174l15.87891-4.53467c7.84375,6.66113,13.41406,16.33398,14.90137,27.53174    C176.0498-39.32104,173.3623-28.9353,167.79883-20.78784"/>
		<path fill="#484848" d="M159.69922-77.76245l-15.87891,4.53467c-8.16504-6.93359-18.7959-10.604-29.85254-9.33252    c-2.07324,0.23828-4.08691,0.64209-6.03027,1.19678l15.87891-4.53467c1.94336-0.55469,3.95605-0.95801,6.0293-1.19678    C140.90234-88.36646,151.5332-84.69604,159.69922-77.76245"/>
	</g>
</g>
<g enable-background="new    ">
	<defs>
		<path id="SVGID_15_" enable-background="new    " d="M101.32422-118.91772l15.87793-4.53418    c-3.07324,0.87744-5.1123,4.03809-4.6543,7.48926l-15.87793,4.53467C96.21094-114.87915,98.25098-118.03979,101.32422-118.91772z"/>
	</defs>
	<clipPath id="SVGID_16_">
		<use xlink:href="#SVGID_15_" overflow="visible"/>
	</clipPath>
	<g clip-path="url(#SVGID_16_)" enable-background="new    ">
		<path fill="#494949" d="M112.54785-115.96265l-15.87793,4.53467c-0.24219-1.81982,0.21094-3.55908,1.14355-4.92529    l15.87793-4.53467C112.75977-119.52173,112.30664-117.78247,112.54785-115.96265"/>
		<path fill="#484848" d="M113.69141-120.88794l-15.87793,4.53467c0.18457-0.271,0.38867-0.52734,0.61035-0.7666l15.87793-4.53418    C114.08105-121.41479,113.87695-121.15894,113.69141-120.88794"/>
		<path fill="#494949" d="M114.30176-121.65405l-15.87793,4.53418c0.38672-0.41943,0.82715-0.78662,1.31152-1.08984    l15.87793-4.53418C115.12988-122.44116,114.68945-122.07397,114.30176-121.65405"/>
		<path fill="#4A4A4A" d="M115.61328-122.7439l-15.87793,4.53418c0.20215-0.12646,0.41309-0.24219,0.62988-0.3457l15.87891-4.53418    C116.02637-122.98657,115.81641-122.87085,115.61328-122.7439"/>
		<path fill="#4A4A4A" d="M116.24414-123.0896l-15.87891,4.53418c0.16699-0.0791,0.33789-0.15137,0.51367-0.21631l15.87793-4.53467    C116.58203-123.24146,116.41016-123.16919,116.24414-123.0896"/>
		<path fill="#4B4B4B" d="M116.75684-123.3064l-15.87793,4.53467c0.14551-0.0542,0.29395-0.10254,0.44531-0.146l15.87793-4.53418    C117.05078-123.40894,116.90234-123.36011,116.75684-123.3064"/>
	</g>
</g>
<g>
	<polygon fill="#4C4C4C" points="112.9082,-113.25415 97.0293,-108.71948 96.66992,-111.42798 112.54785,-115.96265  "/>
</g>
<g enable-background="new    ">
	<defs>
		<path id="SVGID_17_" enable-background="new    " d="M152.65527,31.11938l-15.87793,4.53418    c-0.32129,0.0918-0.6543,0.1582-0.99609,0.19824l15.87891-4.53516C152.00195,31.27759,152.33398,31.21118,152.65527,31.11938z"/>
	</defs>
	<clipPath id="SVGID_18_">
		<use xlink:href="#SVGID_17_" overflow="visible"/>
	</clipPath>
	<g clip-path="url(#SVGID_18_)" enable-background="new    ">
		<path fill="#484848" d="M152.65527,31.11938l-15.87793,4.53418c-0.32129,0.0918-0.6543,0.1582-0.99609,0.19824l15.87891-4.53516    C152.00195,31.27759,152.33398,31.21118,152.65527,31.11938"/>
	</g>
</g>
<g enable-background="new    ">
	<defs>
		<path id="SVGID_19_" enable-background="new    " d="M107.83496-103.51538L91.95605-98.9812    c3.2959-1.5459,5.58008-5.9248,5.07324-9.73828l15.87891-4.53467C113.41406-109.44019,111.13086-105.06177,107.83496-103.51538z"/>
	</defs>
	<clipPath id="SVGID_20_">
		<use xlink:href="#SVGID_19_" overflow="visible"/>
	</clipPath>
	<g clip-path="url(#SVGID_20_)" enable-background="new    ">
		<path fill="#4A4A4A" d="M107.83496-103.51538L91.95605-98.9812c0.01074-0.00488,0.02246-0.00977,0.03223-0.01514l15.87891-4.53467    C107.85645-103.52563,107.8457-103.52075,107.83496-103.51538"/>
		<path fill="#4A4A4A" d="M107.86719-103.53101l-15.87891,4.53467c0.24316-0.11523,0.48047-0.24609,0.71094-0.39063    l15.87891-4.53467C108.34668-103.7771,108.10938-103.64624,107.86719-103.53101"/>
		<path fill="#494949" d="M108.57813-103.92163l-15.87891,4.53467c0.63281-0.39697,1.21777-0.89844,1.74219-1.47705    l15.87793-4.53467C109.79492-104.82007,109.20996-104.31812,108.57813-103.92163"/>
		<path fill="#484848" d="M110.31934-105.39868l-15.87793,4.53467c0.29883-0.33008,0.57715-0.68555,0.83398-1.06055    l15.87793-4.53418C110.89746-106.08374,110.61816-105.72876,110.31934-105.39868"/>
		<path fill="#494949" d="M111.15332-106.45874l-15.87793,4.53418c1.34375-1.96924,2.06055-4.48535,1.75391-6.79492    l15.87891-4.53467C113.21484-110.94458,112.49805-108.42847,111.15332-106.45874"/>
	</g>
</g>
<g>
	<polygon fill="#484848" points="151.66016,31.31665 135.78125,35.85181 123.10352,37.30884 138.98242,32.77466  "/>
</g>
<g>
	<polygon fill="#484848" points="101.01172,-99.58325 85.13379,-95.04858 91.95605,-98.9812 107.83496,-103.51538  "/>
</g>
<g enable-background="new    ">
	<defs>
		<path id="SVGID_21_" enable-background="new    " d="M98.66309-98.46948l-15.87793,4.53467    c0.85156-0.24316,1.65039-0.61377,2.34863-1.11377l15.87793-4.53467C100.31445-99.08325,99.51563-98.71265,98.66309-98.46948z"/>
	</defs>
	<clipPath id="SVGID_22_">
		<use xlink:href="#SVGID_21_" overflow="visible"/>
	</clipPath>
	<g clip-path="url(#SVGID_22_)" enable-background="new    ">
		<path fill="#4B4B4B" d="M98.66309-98.46948l-15.87793,4.53467c0.20313-0.05811,0.40332-0.12354,0.59961-0.1958l15.87891-4.53467    C99.06641-98.59253,98.86719-98.5271,98.66309-98.46948"/>
		<path fill="#4A4A4A" d="M99.26367-98.66528l-15.87891,4.53467c0.22266-0.08203,0.43945-0.17334,0.65039-0.27344l15.87891-4.53467    C99.70313-98.83862,99.48535-98.74731,99.26367-98.66528"/>
		<path fill="#4A4A4A" d="M99.91406-98.93872l-15.87891,4.53467c0.25098-0.11914,0.49316-0.25098,0.72656-0.396l15.87891-4.53467    C100.40625-99.1897,100.16406-99.05786,99.91406-98.93872"/>
		<path fill="#494949" d="M100.64063-99.33472l-15.87891,4.53467c0.12695-0.0791,0.25098-0.16162,0.37207-0.24854l15.87793-4.53467    C100.89063-99.49634,100.7666-99.41382,100.64063-99.33472"/>
	</g>
</g>
<g>
	<polygon fill="#4C4C4C" points="131.48633,26.59888 115.60742,31.13306 115.37793,29.40454 131.25586,24.87036  "/>
</g>
<g enable-background="new    ">
	<defs>
		<path id="SVGID_23_" enable-background="new    " d="M138.98242,32.77466l-15.87891,4.53418    c-3.61719,0.41602-6.98926-2.3623-7.49609-6.17578l15.87891-4.53418C131.99219,30.41138,135.36523,33.19067,138.98242,32.77466z"/>
	</defs>
	<clipPath id="SVGID_24_">
		<use xlink:href="#SVGID_23_" overflow="visible"/>
	</clipPath>
	<g clip-path="url(#SVGID_24_)" enable-background="new    ">
		<path fill="#484848" d="M138.98242,32.77466l-15.87891,4.53418c-1.84473,0.21289-3.625-0.40625-4.99512-1.56934l15.87793-4.53516    C135.35645,32.36841,137.1377,32.98657,138.98242,32.77466"/>
		<path fill="#494949" d="M133.98633,31.20435L118.1084,35.7395c-1.31641-1.11719-2.25293-2.73828-2.50098-4.60645l15.87891-4.53418    C131.73438,28.46704,132.66992,30.08716,133.98633,31.20435"/>
	</g>
</g>
<g enable-background="new    ">
	<defs>
		<path id="SVGID_25_" enable-background="new    " d="M131.25586,24.87036l-15.87793,4.53418    c-0.50488-3.80469-3.86816-7.54297-7.46191-8.30566l15.87891-4.53516C127.38867,17.32642,130.75098,21.06567,131.25586,24.87036z"/>
	</defs>
	<clipPath id="SVGID_26_">
		<use xlink:href="#SVGID_25_" overflow="visible"/>
	</clipPath>
	<g clip-path="url(#SVGID_26_)" enable-background="new    ">
		<path fill="#494949" d="M131.25586,24.87036l-15.87793,4.53418c-0.31543-2.37402-1.74316-4.72266-3.64551-6.33789    l15.87891-4.53516C129.51367,20.14771,130.94141,22.49634,131.25586,24.87036"/>
		<path fill="#484848" d="M127.61133,18.53149l-15.87891,4.53516c-1.14648-0.97363-2.46484-1.68164-3.81641-1.96777    l15.87891-4.53516C125.14648,16.85083,126.46484,17.55786,127.61133,18.53149"/>
	</g>
</g>
<g>
	<polygon fill="#484848" points="123.79492,16.56372 107.91602,21.09888 99.61914,18.57837 115.49707,14.04419  "/>
</g>
<g enable-background="new    ">
	<defs>
		<path id="SVGID_27_" enable-background="new    " d="M66.46875-98.50073c5.29297-1.51172,10.58496-3.02295,15.87793-4.53467    c-1.2998,0.37158-2.49219,1.16553-3.36914,2.3584l-15.87891,4.53467C63.97656-97.33569,65.16797-98.12964,66.46875-98.50073z"/>
	</defs>
	<clipPath id="SVGID_28_">
		<use xlink:href="#SVGID_27_" overflow="visible"/>
	</clipPath>
	<g clip-path="url(#SVGID_28_)" enable-background="new    ">
		<path fill="#484848" d="M78.97754-100.677l-15.87891,4.53467c0.13281-0.18066,0.27246-0.35205,0.41992-0.51465l15.87793-4.53467    C79.25-101.02905,79.11035-100.85767,78.97754-100.677"/>
		<path fill="#494949" d="M79.39648-101.19165l-15.87793,4.53467c0.40723-0.45166,0.86621-0.83154,1.3584-1.13867l15.87891-4.53418    C80.2627-102.02319,79.80469-101.64331,79.39648-101.19165"/>
		<path fill="#4A4A4A" d="M80.75586-102.32983l-15.87891,4.53418c0.20117-0.125,0.40918-0.23828,0.62109-0.33887l15.87891-4.53467    C81.16406-102.5686,80.95703-102.45532,80.75586-102.32983"/>
		<path fill="#4A4A4A" d="M81.37695-102.66919l-15.87891,4.53467c0.16992-0.08105,0.34375-0.1543,0.51953-0.21924l15.87891-4.53467    C81.7207-102.823,81.54688-102.75024,81.37695-102.66919"/>
		<path fill="#4B4B4B" d="M81.89648-102.88843l-15.87891,4.53467c0.14844-0.05469,0.29883-0.104,0.45117-0.14697l15.87793-4.53467    C82.19531-102.99194,82.04492-102.94312,81.89648-102.88843"/>
	</g>
</g>
<g enable-background="new    ">
	<defs>
		<path id="SVGID_29_" enable-background="new    " d="M93.97852,18.36841c5.29297-1.51172,10.58594-3.02344,15.87891-4.53516    c0.50586-0.14453,1.02344-0.24805,1.54492-0.30762c1.4043-0.16113,2.83008-0.00586,4.09473,0.51855l-15.87793,4.53418    c-1.26563-0.52441-2.69043-0.67969-4.0957-0.51758C95.00195,18.12036,94.48438,18.22388,93.97852,18.36841z"/>
	</defs>
	<clipPath id="SVGID_30_">
		<use xlink:href="#SVGID_29_" overflow="visible"/>
	</clipPath>
	<g clip-path="url(#SVGID_30_)" enable-background="new    ">
		<path fill="#484848" d="M115.49707,14.04419l-15.87793,4.53418c-1.26563-0.52441-2.69043-0.67969-4.0957-0.51758    c-0.52148,0.05957-1.03906,0.16309-1.54492,0.30762l15.87891-4.53516c0.50586-0.14453,1.02344-0.24805,1.54492-0.30762    C112.80664,13.3645,114.23242,13.51978,115.49707,14.04419"/>
	</g>
</g>
<g>
	<polygon fill="#494949" points="71.26465,-90.20093 55.38574,-85.66675 63.09863,-96.14233 78.97754,-100.677  "/>
</g>
<g enable-background="new    ">
	<defs>
		<path id="SVGID_31_" enable-background="new    " d="M77.50195-67.98657L61.62402-63.4519    c1.25098-3.56299-0.1084-8.43652-3.01855-10.83398l15.87891-4.53467C77.39453-76.4231,78.75391-71.54956,77.50195-67.98657z"/>
	</defs>
	<clipPath id="SVGID_32_">
		<use xlink:href="#SVGID_31_" overflow="visible"/>
	</clipPath>
	<g clip-path="url(#SVGID_32_)" enable-background="new    ">
		<path fill="#494949" d="M77.50195-67.98657L61.62402-63.4519c1.23926-3.52734-0.08105-8.33936-2.93164-10.76123l15.87793-4.53467    C77.4209-76.32593,78.74121-71.51392,77.50195-67.98657"/>
		<path fill="#484848" d="M74.57031-78.7478l-15.87793,4.53467c-0.02832-0.02441-0.05762-0.04883-0.08691-0.07275l15.87891-4.53467    C74.51367-78.79663,74.54199-78.77222,74.57031-78.7478"/>
	</g>
</g>
<g>
	<polygon fill="#4A4A4A" points="74.48438,-78.82056 58.60547,-74.28589 56.6875,-75.86548 72.56641,-80.40015  "/>
</g>
<g enable-background="new    ">
	<defs>
		<path id="SVGID_33_" enable-background="new    " d="M72.56641-80.40015L56.6875-75.86548    c-2.90918-2.39746-3.49512-6.80762-1.30176-9.80127l15.87891-4.53418C69.07031-87.20776,69.65625-82.79761,72.56641-80.40015z"/>
	</defs>
	<clipPath id="SVGID_34_">
		<use xlink:href="#SVGID_33_" overflow="visible"/>
	</clipPath>
	<g clip-path="url(#SVGID_34_)" enable-background="new    ">
		<path fill="#484848" d="M72.56641-80.40015L56.6875-75.86548c-0.02637-0.02197-0.05273-0.04443-0.08008-0.06689l15.87891-4.53467    C72.5127-80.44458,72.53906-80.42212,72.56641-80.40015"/>
		<path fill="#494949" d="M72.48633-80.46704l-15.87891,4.53467c-2.78125-2.36328-3.37109-6.59229-1.35059-9.55176l15.87793-4.53467    C69.11523-87.05933,69.7041-82.82983,72.48633-80.46704"/>
		<path fill="#484848" d="M71.13477-90.0188l-15.87793,4.53467c0.04199-0.06152,0.08496-0.12207,0.12891-0.18262l15.87891-4.53418    C71.2207-90.14087,71.17773-90.07983,71.13477-90.0188"/>
	</g>
</g>
<g>
	<polygon fill="#4B4B4B" points="75.44336,-59.84351 59.56445,-55.30884 61.62402,-63.4519 77.50195,-67.98657  "/>
</g>
<g enable-background="new    ">
	<defs>
		<path id="SVGID_35_" enable-background="new    " d="M100.85449,20.65942l-15.87891,4.53516    c-0.33301,0.09473-0.67285,0.16211-1.01563,0.20117c-1.68457,0.19434-3.45801-0.28516-4.91309-1.48438l15.87891-4.53418    c1.45508,1.19922,3.22852,1.67773,4.91211,1.48438C100.18164,20.82251,100.52148,20.75513,100.85449,20.65942z"/>
	</defs>
	<clipPath id="SVGID_36_">
		<use xlink:href="#SVGID_35_" overflow="visible"/>
	</clipPath>
	<g clip-path="url(#SVGID_36_)" enable-background="new    ">
		<path fill="#484848" d="M100.85449,20.65942l-15.87891,4.53516c-0.33301,0.09473-0.67285,0.16211-1.01563,0.20117    c-1.68457,0.19434-3.45801-0.28516-4.91309-1.48438l15.87891-4.53418c1.45508,1.19922,3.22852,1.67773,4.91211,1.48438    C100.18164,20.82251,100.52148,20.75513,100.85449,20.65942"/>
	</g>
</g>
<g>
	<polygon fill="#4B4B4B" points="84.68164,-11.61304 68.80273,-7.07886 64.63281,-14.83081 80.51172,-19.36499  "/>
</g>
<g enable-background="new    ">
	<defs>
		<path id="SVGID_37_" enable-background="new    " d="M84.52734-0.37769L68.64844,4.15649    c2.20313-2.98535,2.26953-8.04102,0.1543-11.23535l15.87891-4.53418C86.79688-8.4187,86.73047-3.36304,84.52734-0.37769z"/>
	</defs>
	<clipPath id="SVGID_38_">
		<use xlink:href="#SVGID_37_" overflow="visible"/>
	</clipPath>
	<g clip-path="url(#SVGID_38_)" enable-background="new    ">
		<path fill="#484848" d="M84.52734-0.37769L68.64844,4.15649c0.05273-0.07129,0.10352-0.14355,0.15332-0.2168l15.87793-4.53418    C84.63086-0.52124,84.5791-0.44897,84.52734-0.37769"/>
		<path fill="#494949" d="M84.67969-0.59448L68.80176,3.9397c2.05176-3.00781,2.06543-7.90039,0.00098-11.01855l15.87891-4.53418    C86.74609-8.49487,86.73242-3.60229,84.67969-0.59448"/>
	</g>
</g>
<g enable-background="new    ">
	<defs>
		<path id="SVGID_39_" enable-background="new    " d="M68.84766-52.48804l-15.87891,4.53467    c3.18457-0.90918,6.0293-3.99512,6.5957-7.35547l15.87891-4.53467C74.87598-56.48315,72.03125-53.39722,68.84766-52.48804z"/>
	</defs>
	<clipPath id="SVGID_40_">
		<use xlink:href="#SVGID_39_" overflow="visible"/>
	</clipPath>
	<g clip-path="url(#SVGID_40_)" enable-background="new    ">
		<path fill="#4B4B4B" d="M68.84766-52.48804l-15.87891,4.53467c0.18945-0.05371,0.37695-0.11523,0.5625-0.18408l15.87891-4.53467    C69.22363-52.60327,69.03613-52.54175,68.84766-52.48804"/>
		<path fill="#4A4A4A" d="M69.41016-52.67212l-15.87891,4.53467c0.2334-0.08643,0.46484-0.18457,0.69238-0.29297l15.87793-4.53467    C69.875-52.8562,69.64258-52.75854,69.41016-52.67212"/>
		<path fill="#4A4A4A" d="M70.10156-52.96509l-15.87793,4.53467c0.30566-0.14551,0.60645-0.31104,0.89844-0.49316L71-53.45825    c-0.29102,0.18213-0.5918,0.34766-0.89746,0.49316"/>
		<path fill="#494949" d="M71-53.45825l-15.87793,4.53467c0.88379-0.55176,1.69434-1.26221,2.37891-2.07861l15.87793-4.53467    C72.69531-54.72046,71.88379-54.01001,71-53.45825"/>
		<path fill="#484848" d="M73.37891-55.53687L57.50098-51.0022c0.21582-0.25732,0.41895-0.5249,0.6084-0.80127l15.87793-4.53467    C73.79883-56.06177,73.5957-55.7937,73.37891-55.53687"/>
		<path fill="#494949" d="M73.9873-56.33813l-15.87793,4.53467c0.72852-1.06836,1.24609-2.26807,1.45508-3.50537l15.87891-4.53467    C75.23438-58.6062,74.7168-57.40601,73.9873-56.33813"/>
	</g>
</g>
<g>
	<polygon fill="#494949" points="83.40039,1.15356 67.52148,5.68774 68.64844,4.15649 84.52734,-0.37769  "/>
</g>
<g>
	<polygon fill="#4A4A4A" points="94.92578,19.3772 79.04688,23.91138 68.82422,15.4895 84.70215,10.95435  "/>
</g>
<g enable-background="new    ">
	<defs>
		<path id="SVGID_41_" enable-background="new    " d="M84.70215,10.95435L68.82422,15.4895    c-2.91016-2.39746-3.49609-6.80762-1.30273-9.80176l15.87891-4.53418C81.20703,4.14673,81.79297,8.55786,84.70215,10.95435z"/>
	</defs>
	<clipPath id="SVGID_42_">
		<use xlink:href="#SVGID_41_" overflow="visible"/>
	</clipPath>
	<g clip-path="url(#SVGID_42_)" enable-background="new    ">
		<path fill="#484848" d="M84.70215,10.95435L68.82422,15.4895c-0.02734-0.02246-0.05469-0.04492-0.08105-0.06738l15.87793-4.53516    C84.64844,10.9104,84.6748,10.93286,84.70215,10.95435"/>
		<path fill="#494949" d="M84.62109,10.88696l-15.87793,4.53516c-2.78223-2.3623-3.37109-6.59277-1.35059-9.55176l15.87891-4.53516    C81.25,4.29517,81.83984,8.52466,84.62109,10.88696"/>
		<path fill="#484848" d="M83.27148,1.33521L67.39258,5.87036c0.04199-0.06152,0.08496-0.12207,0.12891-0.18262l15.87891-4.53418    C83.35547,1.21313,83.3125,1.27466,83.27148,1.33521"/>
	</g>
</g>
<g enable-background="new    ">
	<defs>
		<path id="SVGID_43_" enable-background="new    " d="M80.51172-19.36499l-15.87891,4.53418    c-1.54883-3.52246-5.78125-6.05664-9.39063-5.6416l15.87891-4.53516C74.73047-25.42261,78.96289-22.88745,80.51172-19.36499z"/>
	</defs>
	<clipPath id="SVGID_44_">
		<use xlink:href="#SVGID_43_" overflow="visible"/>
	</clipPath>
	<g clip-path="url(#SVGID_44_)" enable-background="new    ">
		<path fill="#494949" d="M80.51172-19.36499l-15.87891,4.53418c-0.54883-1.24707-1.43359-2.37109-2.50781-3.2832l15.87793-4.53516    C79.07813-21.73608,79.96289-20.61304,80.51172-19.36499"/>
		<path fill="#484848" d="M78.00293-22.64917L62.125-18.11401c-1.96094-1.66406-4.55176-2.62695-6.88281-2.3584l15.87891-4.53516    C73.45215-25.27515,76.04297-24.31323,78.00293-22.64917"/>
	</g>
</g>
<g>
	<polygon fill="#484848" points="71.12109,-25.00757 55.24219,-20.47241 53.24805,-20.24292 69.12695,-24.77808  "/>
</g>
<g>
	<radialGradient id="SVGID_45_" cx="134.92773" cy="-46.16675" r="77.08308" gradientUnits="userSpaceOnUse">
		<stop offset="0.07143" style="stop-color:#939393"/>
		<stop offset="0.19231" style="stop-color:#FFFFFF"/>
		<stop offset="0.5" style="stop-color:#939393"/>
		<stop offset="0.5989" style="stop-color:#BBBBBB"/>
		<stop offset="0.74725" style="stop-color:#B7B7B7"/>
		<stop offset="0.80337" style="stop-color:#D6D6D6"/>
		<stop offset="1" style="stop-color:#939598"/>
	</radialGradient>
	<path fill="url(#SVGID_45_)" d="M200.73535-67.55591c3.6084-0.41455,6.98145,2.36328,7.48828,6.17676l1.77539,13.36523   c0.50684,3.81299-2.03809,7.27197-5.64648,7.68701l-2.00293,0.23047c-3.6084,0.41504-7.0498,3.83203-7.63184,7.59961   l-2.01563,8.46289c-1.21484,3.57715,0.17188,8.46582,3.09082,10.8623l1.49316,1.22949   c2.91113,2.40723,3.49707,6.81738,1.30176,9.80176l-7.71094,10.48438c-1.09766,1.49316-2.69238,2.35938-4.37695,2.55273   c-1.68555,0.19434-3.46094-0.28516-4.9209-1.4834l-1.37695-1.13574c-1.83789-1.5127-4.43066-2.15332-6.83691-1.87695   c-1.40527,0.16211-2.74707,0.63574-3.83691,1.43066l-7.37988,4.32227c-3.29492,1.55469-5.57715,5.94336-5.07227,9.74707   l0.22949,1.72949c0.50684,3.8125-2.03711,7.27148-5.64551,7.68652l-12.67773,1.45801   c-3.61719,0.41602-6.99023-2.36328-7.49609-6.17578l-0.23047-1.72852c-0.50488-3.80469-3.86719-7.54395-7.46094-8.30664   l-8.29785-2.51953c-1.26465-0.52441-2.69043-0.67969-4.09473-0.51855c-2.40723,0.27734-4.75586,1.48535-6.14063,3.36914   l-1.03906,1.41309c-1.10254,1.49316-2.69922,2.36035-4.38477,2.55371c-1.68359,0.19336-3.45703-0.28516-4.91211-1.48438   l-10.22363-8.42285c-2.90918-2.39648-3.49512-6.80762-1.30176-9.80078l1.12695-1.53125   c2.20313-2.98535,2.26953-8.04102,0.1543-11.23535l-4.16992-7.75195c-1.54883-3.52246-5.78125-6.05762-9.39063-5.64258   l-1.99414,0.22949c-3.61719,0.41602-6.99023-2.36328-7.49609-6.17578l-1.77539-13.36523   c-0.50781-3.81348,2.03711-7.27197,5.6543-7.68799l2.20508-0.25342c3.61719-0.41602,7.09473-3.82813,7.72852-7.58301   l2.05859-8.14307c1.25195-3.56299-0.10742-8.43652-3.01758-10.83398l-1.91797-1.57959   c-2.91016-2.39746-3.49609-6.80762-1.30176-9.80078l7.71289-10.47607c1.10059-1.49756,2.69727-2.36621,4.38184-2.56006   c1.68555-0.19336,3.45898,0.2876,4.91406,1.49121l2.03223,1.66553c1.85059,1.53027,4.47168,2.17773,6.90137,1.89844   c1.3916-0.15967,2.7207-0.62451,3.80469-1.40137l6.82324-3.93213c3.2959-1.54639,5.5791-5.9248,5.07324-9.73877l-0.36035-2.7085   c-0.50684-3.81348,2.03711-7.27197,5.6543-7.68799l12.67773-1.45752c3.6084-0.41504,6.98145,2.36328,7.4873,6.17676l0.36035,2.7085   c0.50684,3.81348,3.86816,7.54346,7.46875,8.29639l7.65527,2.26758c1.25195,0.5083,2.66016,0.6582,4.05078,0.49805   c2.42871-0.2793,4.80371-1.50146,6.20313-3.40527l1.52539-2.07471c1.10254-1.49756,2.69824-2.36621,4.38379-2.56006   c1.68457-0.19336,3.45801,0.2876,4.91406,1.49121l10.22168,8.41357c2.91113,2.40625,3.49707,6.81641,1.30176,9.80127   l-1.44629,1.96631c-2.19531,2.98389-2.23828,8.01904-0.0918,11.19141l4.12793,7.43164   c1.59668,3.49805,5.8623,6.02002,9.47949,5.604L200.73535-67.55591z M140.84082-4.32983   c21.67871-2.49219,36.7959-23.0459,33.75977-45.90088c-3.03613-22.854-23.07617-39.35693-44.75488-36.86426   c-21.67773,2.49268-36.78809,23.03711-33.75195,45.89111C99.12891-18.34937,119.16211-1.83667,140.84082-4.32983"/>
</g>
<g enable-background="new    ">
	<defs>
		<path id="SVGID_46_" enable-background="new    " d="M48.63086-47.27368l15.87891-4.53467    c-3.07324,0.87744-5.11328,4.03809-4.6543,7.48926l-15.87891,4.53467C43.51758-43.2356,45.55762-46.39624,48.63086-47.27368z"/>
	</defs>
	<clipPath id="SVGID_47_">
		<use xlink:href="#SVGID_46_" overflow="visible"/>
	</clipPath>
	<g clip-path="url(#SVGID_47_)" enable-background="new    ">
		<path fill="#494949" d="M59.85547-44.31909l-15.87891,4.53467c-0.24219-1.81982,0.21094-3.55908,1.14453-4.92529l15.87793-4.53467    C60.06641-47.87817,59.61328-46.13892,59.85547-44.31909"/>
		<path fill="#484848" d="M60.99902-49.24438l-15.87793,4.53467c0.18457-0.271,0.38867-0.52686,0.60938-0.76611l15.87891-4.53467    C61.3877-49.77124,61.18359-49.51538,60.99902-49.24438"/>
		<path fill="#494949" d="M61.60938-50.0105l-15.87891,4.53467c0.38672-0.41943,0.82813-0.78711,1.31152-1.08984l15.87793-4.53467    C62.43652-50.79761,61.99609-50.42993,61.60938-50.0105"/>
		<path fill="#4A4A4A" d="M62.91992-51.10034l-15.87793,4.53467c0.20215-0.12695,0.41309-0.24268,0.62988-0.3457l15.87891-4.53467    C63.33301-51.34253,63.12305-51.22729,62.91992-51.10034"/>
		<path fill="#4A4A4A" d="M63.55078-51.44604l-15.87891,4.53467c0.16699-0.07959,0.33789-0.15186,0.51367-0.2168l15.87891-4.53467    C63.88867-51.5979,63.71777-51.52563,63.55078-51.44604"/>
		<path fill="#4B4B4B" d="M64.06445-51.66284l-15.87891,4.53467c0.14551-0.05371,0.29492-0.10254,0.44531-0.14551l15.87891-4.53467    C64.3584-51.76538,64.20996-51.71655,64.06445-51.66284"/>
	</g>
</g>
<g>
	<polygon fill="#4C4C4C" points="61.63086,-30.95386 45.75195,-26.4187 43.97656,-39.78442 59.85547,-44.31909  "/>
</g>
<g enable-background="new    ">
	<defs>
		<path id="SVGID_48_" enable-background="new    " d="M69.12695-24.77808l-15.87891,4.53516    c-3.61719,0.41504-6.99023-2.36328-7.49609-6.17578l15.87891-4.53516C62.13672-27.14136,65.50977-24.36206,69.12695-24.77808z"/>
	</defs>
	<clipPath id="SVGID_49_">
		<use xlink:href="#SVGID_48_" overflow="visible"/>
	</clipPath>
	<g clip-path="url(#SVGID_49_)" enable-background="new    ">
		<path fill="#484848" d="M69.12695-24.77808l-15.87891,4.53516c-1.84473,0.21191-3.62598-0.40723-4.99609-1.57031l15.87891-4.53418    C65.5-25.18433,67.28125-24.56616,69.12695-24.77808"/>
		<path fill="#494949" d="M64.13086-26.34741l-15.87891,4.53418c-1.31543-1.11719-2.25195-2.7373-2.5-4.60547l15.87891-4.53516    C61.87891-29.08569,62.81445-27.46558,64.13086-26.34741"/>
	</g>
</g>
<g enable-background="new    ">
	<defs>
		<path id="SVGID_50_" enable-background="new    " d="M142.34863,91.47583c-5.29297,1.51172-10.58594,3.02246-15.87891,4.53418    c-0.32129,0.0918-0.65332,0.15918-0.99512,0.19824l15.87793-4.53516C141.69434,91.63403,142.02734,91.56763,142.34863,91.47583z"/>
	</defs>
	<clipPath id="SVGID_51_">
		<use xlink:href="#SVGID_50_" overflow="visible"/>
	</clipPath>
	<g clip-path="url(#SVGID_51_)" enable-background="new    ">
		<path fill="#484848" d="M142.34863,91.47583l-15.87891,4.53418c-0.32129,0.0918-0.65332,0.15918-0.99512,0.19824l15.87793-4.53516    C141.69434,91.63403,142.02734,91.56763,142.34863,91.47583"/>
	</g>
</g>
<g>
	<polygon fill="#484848" points="141.35254,91.6731 125.47461,96.20825 123.47168,96.43872 139.34961,91.90356  "/>
</g>
<g enable-background="new    ">
	<defs>
		<path id="SVGID_52_" enable-background="new    " d="M122.35059,96.66333c5.29297-1.51172,10.58594-3.02344,15.87891-4.53516    c0.36914-0.10547,0.74414-0.18164,1.12012-0.22461l-15.87793,4.53516C123.09473,96.48169,122.7207,96.55786,122.35059,96.66333z"/>
	</defs>
	<clipPath id="SVGID_53_">
		<use xlink:href="#SVGID_52_" overflow="visible"/>
	</clipPath>
	<g clip-path="url(#SVGID_53_)" enable-background="new    ">
		<path fill="#484848" d="M139.34961,91.90356l-15.87793,4.53516c-0.37695,0.04297-0.75098,0.11914-1.12109,0.22461    l15.87891-4.53516C138.59863,92.02271,138.97363,91.94653,139.34961,91.90356"/>
	</g>
</g>
<g enable-background="new    ">
	<defs>
		<path id="SVGID_54_" enable-background="new    " d="M90.12305,23.5354c0.23828-0.06787,0.55566-0.15869,0.79395-0.22656    c5.02832-1.43604,10.05566-2.87207,15.08496-4.30811c-1.30078,0.37158-2.49316,1.16553-3.37109,2.35889L86.75293,25.8938    C87.63086,24.70093,88.82227,23.90698,90.12305,23.5354z"/>
	</defs>
	<clipPath id="SVGID_55_">
		<use xlink:href="#SVGID_54_" overflow="visible"/>
	</clipPath>
	<g clip-path="url(#SVGID_55_)" enable-background="new    ">
		<path fill="#484848" d="M102.63086,21.35962L86.75293,25.8938c0.13281-0.18066,0.27344-0.35205,0.41992-0.51465l15.87793-4.53418    C102.9043,21.00708,102.76465,21.17896,102.63086,21.35962"/>
		<path fill="#494949" d="M103.05078,20.84497l-15.87793,4.53418c0.40723-0.45117,0.86621-0.83105,1.3584-1.13818l15.87891-4.53467    C103.91699,20.01343,103.45898,20.39331,103.05078,20.84497"/>
		<path fill="#4A4A4A" d="M104.41016,19.7063l-15.87891,4.53467c0.20215-0.125,0.40918-0.23828,0.62109-0.33936l15.87891-4.53418    C104.81836,19.46802,104.61133,19.5813,104.41016,19.7063"/>
		<path fill="#4A4A4A" d="M105.03125,19.36743l-15.87891,4.53418c0.1709-0.08105,0.34375-0.15381,0.52051-0.21875l15.87793-4.53467    C105.375,19.21313,105.20117,19.28638,105.03125,19.36743"/>
		<path fill="#4B4B4B" d="M105.55078,19.14819l-15.87793,4.53467c0.14844-0.05469,0.29883-0.104,0.4502-0.14746l15.87891-4.53467    C105.84961,19.04419,105.69922,19.09351,105.55078,19.14819"/>
	</g>
</g>
<g>
	<polygon fill="#494949" points="101.10547,23.43433 85.22656,27.96899 86.75293,25.8938 102.63086,21.35962  "/>
</g>
<g enable-background="new    ">
	<defs>
		<path id="SVGID_56_" enable-background="new    " d="M96.45996,26.52905l-15.87793,4.53467    c1.85156-0.52881,3.54785-1.60254,4.64453-3.09473l15.87891-4.53467C100.00781,24.92651,98.31152,26.00024,96.45996,26.52905z"/>
	</defs>
	<clipPath id="SVGID_57_">
		<use xlink:href="#SVGID_56_" overflow="visible"/>
	</clipPath>
	<g clip-path="url(#SVGID_57_)" enable-background="new    ">
		<path fill="#4B4B4B" d="M96.45996,26.52905l-15.87793,4.53467c0.23633-0.06787,0.47168-0.14453,0.70313-0.22998l15.87793-4.53467    C96.93164,26.38452,96.69727,26.46118,96.45996,26.52905"/>
		<path fill="#4A4A4A" d="M97.16309,26.29907l-15.87793,4.53467c0.27051-0.1001,0.53711-0.2124,0.79785-0.33594l15.87793-4.53467    C97.70117,26.08667,97.43457,26.19897,97.16309,26.29907"/>
		<path fill="#4A4A4A" d="M97.96094,25.96313L82.08301,30.4978c0.31738-0.15088,0.62598-0.31885,0.92188-0.50342l15.87793-4.53467    C98.58691,25.64429,98.27832,25.81226,97.96094,25.96313"/>
		<path fill="#494949" d="M98.88281,25.45972l-15.87793,4.53467c0.61426-0.38281,1.17578-0.83594,1.66113-1.35254l15.87891-4.53467    C100.05957,24.62427,99.49707,25.07739,98.88281,25.45972"/>
		<path fill="#484848" d="M100.54492,24.10718l-15.87891,4.53467c0.2002-0.21387,0.3877-0.43799,0.56055-0.67285l15.87891-4.53467    C100.93262,23.66919,100.74512,23.8938,100.54492,24.10718"/>
	</g>
</g>
<g enable-background="new    ">
	<defs>
		<path id="SVGID_58_" enable-background="new    " d="M124.51465,142.69556c-5.29297,1.51074-10.58594,3.02344-15.87891,4.53418    c-0.33203,0.0957-0.6709,0.16211-1.01465,0.20215c-1.68555,0.19336-3.45996-0.28516-4.91992-1.4834l15.87793-4.53516    c1.45996,1.19824,3.23535,1.67773,4.9209,1.4834C123.84277,142.85767,124.18262,142.79028,124.51465,142.69556z"/>
	</defs>
	<clipPath id="SVGID_59_">
		<use xlink:href="#SVGID_58_" overflow="visible"/>
	</clipPath>
	<g clip-path="url(#SVGID_59_)" enable-background="new    ">
		<path fill="#484848" d="M124.51465,142.69556l-15.87891,4.53418c-0.33203,0.0957-0.6709,0.16211-1.01465,0.20215    c-1.68555,0.19336-3.45996-0.28516-4.91992-1.4834l15.87793-4.53516c1.45996,1.19824,3.23535,1.67773,4.9209,1.4834    C123.84277,142.85767,124.18262,142.79028,124.51465,142.69556"/>
	</g>
</g>
<g>
	<polygon fill="#4A4A4A" points="118.5791,141.41333 102.70117,145.94849 101.32422,144.81274 117.20215,140.27856  "/>
</g>
<g enable-background="new    ">
	<defs>
		<path id="SVGID_60_" enable-background="new    " d="M93.03906,143.22192c5.29297-1.51172,10.58496-3.02344,15.87793-4.53516    c0.46973-0.13379,0.95508-0.22852,1.44824-0.28516c2.40625-0.27734,4.99902,0.36328,6.83691,1.87695l-15.87793,4.53418    c-1.83789-1.51367-4.43164-2.15332-6.83789-1.87695C93.99316,142.99243,93.50781,143.08813,93.03906,143.22192z"/>
	</defs>
	<clipPath id="SVGID_61_">
		<use xlink:href="#SVGID_60_" overflow="visible"/>
	</clipPath>
	<g clip-path="url(#SVGID_61_)" enable-background="new    ">
		<path fill="#484848" d="M117.20215,140.27856l-15.87793,4.53418c-1.83789-1.51367-4.43164-2.15332-6.83789-1.87695    c-0.49316,0.05664-0.97852,0.15234-1.44727,0.28613l15.87793-4.53516c0.46973-0.13379,0.95508-0.22852,1.44824-0.28516    C112.77148,138.12427,115.36426,138.76489,117.20215,140.27856"/>
	</g>
</g>
<g enable-background="new    ">
	<defs>
		<path id="SVGID_62_" enable-background="new    " d="M83.86914,126.47388c-5.29297,1.51172-10.58545,3.02344-15.87891,4.53516    c18.375-5.24805,30.47754-24.03516,27.73145-44.70459C92.68555,63.44995,72.646,46.94751,50.96777,49.44019    c-2.07373,0.23828-4.08691,0.6416-6.03027,1.19678l15.87842-4.53467c1.94336-0.55518,3.95654-0.9585,6.03027-1.19678    c21.67822-2.49268,41.71826,14.00977,44.75439,36.86426C114.3457,102.43872,102.24414,121.22681,83.86914,126.47388z"/>
	</defs>
	<clipPath id="SVGID_63_">
		<use xlink:href="#SVGID_62_" overflow="visible"/>
	</clipPath>
	<g clip-path="url(#SVGID_63_)" enable-background="new    ">
		<path fill="#4B4B4B" d="M83.86914,126.47388l-15.87891,4.53516c0.90723-0.25977,1.79883-0.55176,2.67432-0.875l15.87842-4.53516    C85.66797,125.9231,84.77539,126.21509,83.86914,126.47388"/>
		<path fill="#4A4A4A" d="M86.54297,125.59888l-15.87842,4.53516c1.04932-0.3877,2.07471-0.82129,3.07568-1.29688l15.87793-4.53516    C88.61816,124.77856,87.5918,125.21118,86.54297,125.59888"/>
		<path fill="#4A4A4A" d="M89.61816,124.302l-15.87793,4.53516c1.29883-0.61914,2.55664-1.30957,3.7666-2.06836l15.87891-4.53418    C92.1748,122.99243,90.91797,123.68384,89.61816,124.302"/>
		<path fill="#494949" d="M93.38574,122.23462l-15.87891,4.53418c2.87207-1.79785,5.4834-3.97461,7.78125-6.45898l15.87793-4.53516    C98.86816,118.25903,96.25781,120.43579,93.38574,122.23462"/>
		<path fill="#484848" d="M101.16602,115.77466l-15.87793,4.53516c1.31641-1.4248,2.53125-2.9502,3.63281-4.56348l15.87793-4.53418    C103.69727,112.82544,102.4834,114.35083,101.16602,115.77466"/>
		<path fill="#494949" d="M104.79883,111.21216l-15.87793,4.53418c5.5625-8.14648,8.25-18.53223,6.80078-29.44189    c-1.4873-11.19775-7.05664-20.87061-14.90137-27.53174l15.87891-4.53418c7.84375,6.66064,13.41406,16.3335,14.90137,27.53125    C113.0498,92.67896,110.3623,103.0647,104.79883,111.21216"/>
		<path fill="#484848" d="M96.69922,54.23853l-15.87891,4.53418c-8.16504-6.93408-18.7959-10.604-29.85254-9.33252    c-2.07373,0.23828-4.08691,0.6416-6.03027,1.19678l15.87842-4.53467c1.94336-0.55518,3.95654-0.9585,6.03027-1.19678    C77.90234,43.63403,88.5332,47.30396,96.69922,54.23853"/>
	</g>
</g>
<g enable-background="new    ">
	<defs>
		<path id="SVGID_64_" enable-background="new    " d="M38.32373,13.08276c5.29346-1.51123,10.58545-3.02344,15.87842-4.53467    c-3.07275,0.87793-5.11279,4.03809-4.6543,7.48975l-15.87842,4.53467C33.21094,17.12085,35.25098,13.96021,38.32373,13.08276z"/>
	</defs>
	<clipPath id="SVGID_65_">
		<use xlink:href="#SVGID_64_" overflow="visible"/>
	</clipPath>
	<g clip-path="url(#SVGID_65_)" enable-background="new    ">
		<path fill="#494949" d="M49.54785,16.03784l-15.87842,4.53467c-0.2417-1.82031,0.21143-3.55957,1.14404-4.92578l15.87842-4.53418    C49.75928,12.47876,49.30615,14.21753,49.54785,16.03784"/>
		<path fill="#484848" d="M50.69189,11.11255l-15.87842,4.53418c0.18506-0.27051,0.38867-0.52686,0.60986-0.76611l15.87842-4.53467    C51.08105,10.58521,50.87695,10.84155,50.69189,11.11255"/>
		<path fill="#494949" d="M51.30176,10.34595l-15.87842,4.53467c0.3877-0.41943,0.82764-0.78662,1.31201-1.08984L52.61377,9.2561    C52.12939,9.55933,51.68945,9.92651,51.30176,10.34595"/>
		<path fill="#4A4A4A" d="M52.61377,9.2561l-15.87842,4.53467c0.20215-0.12695,0.4126-0.24219,0.62988-0.3457L53.24365,8.9104    C53.02637,9.01392,52.81641,9.12915,52.61377,9.2561"/>
		<path fill="#4A4A4A" d="M53.24365,8.9104l-15.87842,4.53467c0.16699-0.07959,0.33838-0.15186,0.51318-0.21631l15.87842-4.53467    C53.58203,8.75854,53.41064,8.83081,53.24365,8.9104"/>
		<path fill="#4B4B4B" d="M53.75684,8.69409l-15.87842,4.53418c0.146-0.05371,0.29443-0.10254,0.44531-0.14551L54.20215,8.5481    C54.05127,8.59106,53.90283,8.63989,53.75684,8.69409"/>
	</g>
</g>
<g>
	<polygon fill="#4C4C4C" points="49.90771,18.74634 34.0293,23.28101 33.66943,20.57251 49.54785,16.03784  "/>
</g>
<g enable-background="new    ">
	<defs>
		<path id="SVGID_66_" enable-background="new    " d="M89.65527,163.11938c-5.29297,1.51172-10.58496,3.02246-15.87793,4.53418    c-0.32129,0.0918-0.6543,0.15918-0.99609,0.19824l15.87793-4.53418C89.00195,163.27759,89.33398,163.21118,89.65527,163.11938z"/>
	</defs>
	<clipPath id="SVGID_67_">
		<use xlink:href="#SVGID_66_" overflow="visible"/>
	</clipPath>
	<g clip-path="url(#SVGID_67_)" enable-background="new    ">
		<path fill="#484848" d="M89.65527,163.11938l-15.87793,4.53418c-0.32129,0.0918-0.6543,0.15918-0.99609,0.19824l15.87793-4.53418    C89.00195,163.27759,89.33398,163.21118,89.65527,163.11938"/>
	</g>
</g>
<g enable-background="new    ">
	<defs>
		<path id="SVGID_68_" enable-background="new    " d="M44.83496,28.48462l-15.87891,4.53467    c3.2959-1.5459,5.58008-5.9248,5.07324-9.73828l15.87842-4.53467C50.41455,22.55981,48.13037,26.93872,44.83496,28.48462z"/>
	</defs>
	<clipPath id="SVGID_69_">
		<use xlink:href="#SVGID_68_" overflow="visible"/>
	</clipPath>
	<g clip-path="url(#SVGID_69_)" enable-background="new    ">
		<path fill="#4A4A4A" d="M44.83496,28.48462l-15.87891,4.53467c0.01123-0.00488,0.02197-0.01025,0.03271-0.01514l15.87842-4.53467    C44.85645,28.47437,44.8457,28.47974,44.83496,28.48462"/>
		<path fill="#4A4A4A" d="M44.86719,28.46948l-15.87842,4.53467c0.24268-0.11572,0.47949-0.24609,0.71045-0.39111l15.87793-4.53467    C45.34668,28.22339,45.10986,28.35376,44.86719,28.46948"/>
		<path fill="#494949" d="M45.57715,28.07837l-15.87793,4.53467c0.63232-0.39648,1.21777-0.89795,1.7417-1.47705l15.87842-4.53418    C46.79541,27.18042,46.20996,27.68188,45.57715,28.07837"/>
		<path fill="#484848" d="M47.31934,26.60181l-15.87842,4.53418c0.29883-0.33008,0.57764-0.68506,0.83398-1.06006l15.87842-4.53467    C47.89697,25.91626,47.61816,26.27173,47.31934,26.60181"/>
		<path fill="#494949" d="M48.15332,25.54126L32.2749,30.07593c1.34473-1.96924,2.06104-4.48584,1.75439-6.79492l15.87842-4.53467    C50.21436,21.05542,49.49805,23.57202,48.15332,25.54126"/>
	</g>
</g>
<g>
	<polygon fill="#484848" points="88.65918,163.31763 72.78125,167.85181 60.10352,169.30981 75.98242,164.77466  "/>
</g>
<g>
	<polygon fill="#484848" points="38.01172,32.41724 22.13379,36.9519 28.95605,33.01929 44.83496,28.48462  "/>
</g>
<g enable-background="new    ">
	<defs>
		<path id="SVGID_70_" enable-background="new    " d="M35.66309,33.53101c-5.29297,1.51123-10.58545,3.02344-15.87842,4.53467    c0.85205-0.24316,1.65088-0.61377,2.34912-1.11377l15.87793-4.53467C37.31396,32.91724,36.51514,33.28784,35.66309,33.53101z"/>
	</defs>
	<clipPath id="SVGID_71_">
		<use xlink:href="#SVGID_70_" overflow="visible"/>
	</clipPath>
	<g clip-path="url(#SVGID_71_)" enable-background="new    ">
		<path fill="#4B4B4B" d="M35.66309,33.53101l-15.87842,4.53467c0.20313-0.05811,0.40381-0.12354,0.6001-0.19629l15.87891-4.53418    C36.06689,33.40747,35.86621,33.4729,35.66309,33.53101"/>
		<path fill="#4A4A4A" d="M36.26318,33.33521l-15.87842,4.53418c0.22217-0.08154,0.43945-0.17285,0.65088-0.27344l15.87842-4.53467    C36.70264,33.16187,36.48535,33.25317,36.26318,33.33521"/>
		<path fill="#4A4A4A" d="M36.91406,33.06128l-15.87842,4.53467c0.25049-0.11865,0.49268-0.25049,0.72559-0.39551l15.87842-4.53467    C37.40674,32.81079,37.16455,32.94263,36.91406,33.06128"/>
		<path fill="#494949" d="M37.63965,32.66577l-15.87842,4.53467c0.12695-0.0791,0.25146-0.16211,0.37256-0.24854l15.87793-4.53467    C37.89111,32.50415,37.7666,32.58667,37.63965,32.66577"/>
	</g>
</g>
<g>
	<polygon fill="#4C4C4C" points="68.48584,158.59888 52.60742,163.13306 52.37793,161.40454 68.25635,156.87036  "/>
</g>
<g enable-background="new    ">
	<defs>
		<path id="SVGID_72_" enable-background="new    " d="M75.98242,164.77466l-15.87891,4.53516    c-3.61719,0.41602-6.98926-2.36328-7.49609-6.17676l15.87842-4.53418C68.99268,162.41235,72.36475,165.19067,75.98242,164.77466z"/>
	</defs>
	<clipPath id="SVGID_73_">
		<use xlink:href="#SVGID_72_" overflow="visible"/>
	</clipPath>
	<g clip-path="url(#SVGID_73_)" enable-background="new    ">
		<path fill="#484848" d="M75.98242,164.77466l-15.87891,4.53516c-1.84473,0.21191-3.62549-0.40723-4.99512-1.57031    l15.87793-4.53418C72.35645,164.36841,74.13672,164.98657,75.98242,164.77466"/>
		<path fill="#494949" d="M70.98633,163.20532L55.1084,167.7395c-1.31641-1.11719-2.25244-2.7373-2.50098-4.60645l15.87842-4.53418    C68.73438,160.46704,69.67041,162.08716,70.98633,163.20532"/>
	</g>
</g>
<g enable-background="new    ">
	<defs>
		<path id="SVGID_74_" enable-background="new    " d="M68.25635,156.87036l-15.87842,4.53418    c-0.50537-3.80371-3.86816-7.54297-7.46191-8.30566l15.87891-4.53516C64.38818,149.32739,67.75098,153.06567,68.25635,156.87036z"/>
	</defs>
	<clipPath id="SVGID_75_">
		<use xlink:href="#SVGID_74_" overflow="visible"/>
	</clipPath>
	<g clip-path="url(#SVGID_75_)" enable-background="new    ">
		<path fill="#494949" d="M68.25635,156.87036l-15.87842,4.53418c-0.31543-2.37402-1.74316-4.72168-3.64551-6.33789    l15.87842-4.53418C66.51318,152.14771,67.94092,154.49634,68.25635,156.87036"/>
		<path fill="#484848" d="M64.61084,150.53247l-15.87842,4.53418c-1.14648-0.97363-2.46484-1.68066-3.81641-1.96777    l15.87891-4.53516C62.146,148.85083,63.46484,149.55884,64.61084,150.53247"/>
	</g>
</g>
<g>
	<polygon fill="#484848" points="60.79492,148.56372 44.91602,153.09888 36.61865,150.57935 52.49707,146.04419  "/>
</g>
<g enable-background="new    ">
	<defs>
		<path id="SVGID_76_" enable-background="new    " d="M3.46826,33.49927c5.29297-1.51172,10.58545-3.02295,15.87842-4.53467    c-1.30029,0.37158-2.49219,1.16553-3.36914,2.35889L0.09863,35.85767C0.97607,34.66479,2.16797,33.87085,3.46826,33.49927z"/>
	</defs>
	<clipPath id="SVGID_77_">
		<use xlink:href="#SVGID_76_" overflow="visible"/>
	</clipPath>
	<g clip-path="url(#SVGID_77_)" enable-background="new    ">
		<path fill="#484848" d="M15.97754,31.32349L0.09863,35.85767c0.13281-0.18066,0.27295-0.35205,0.41943-0.51416l15.87842-4.53467    C16.25,30.97095,16.11035,31.14282,15.97754,31.32349"/>
		<path fill="#494949" d="M16.39648,30.80884L0.51807,35.34351c0.40771-0.45166,0.86621-0.83154,1.35889-1.13867l15.87891-4.53467    C17.2627,29.97729,16.80469,30.35718,16.39648,30.80884"/>
		<path fill="#4A4A4A" d="M17.75586,29.67017L1.87695,34.20483c0.20166-0.12549,0.40918-0.23828,0.62109-0.33936l15.87842-4.53418    C18.16406,29.43188,17.95703,29.54517,17.75586,29.67017"/>
		<path fill="#4A4A4A" d="M18.37646,29.3313L2.49805,33.86548c0.17041-0.08105,0.34375-0.15381,0.51953-0.21875l15.87891-4.53467    C18.72021,29.177,18.54688,29.25024,18.37646,29.3313"/>
		<path fill="#4B4B4B" d="M18.89648,29.11206L3.01758,33.64673c0.14893-0.05469,0.29883-0.104,0.45068-0.14746l15.87842-4.53467    C19.19482,29.00806,19.04492,29.05737,18.89648,29.11206"/>
	</g>
</g>
<g enable-background="new    ">
	<defs>
		<path id="SVGID_78_" enable-background="new    " d="M30.97852,150.36841c5.02832-1.43555,10.05615-2.87207,15.08447-4.30762    c0.23779-0.06836,0.55566-0.15918,0.79395-0.22656c0.50586-0.14453,1.02393-0.24805,1.54492-0.30762    c1.40527-0.16211,2.83008-0.00684,4.09521,0.51758l-15.87842,4.53516c-1.26514-0.52539-2.68994-0.68066-4.09521-0.51855    C32.00244,150.12036,31.48438,150.22388,30.97852,150.36841z"/>
	</defs>
	<clipPath id="SVGID_79_">
		<use xlink:href="#SVGID_78_" overflow="visible"/>
	</clipPath>
	<g clip-path="url(#SVGID_79_)" enable-background="new    ">
		<path fill="#484848" d="M52.49707,146.04419l-15.87842,4.53516c-1.26514-0.52539-2.68994-0.68066-4.09521-0.51855    c-0.521,0.05957-1.03906,0.16309-1.54492,0.30762l15.87842-4.53418c0.50586-0.14453,1.02393-0.24805,1.54492-0.30762    C49.80713,145.3645,51.23193,145.51978,52.49707,146.04419"/>
	</g>
</g>
<g>
	<polygon fill="#494949" points="8.26416,41.79907 -7.61426,46.33374 0.09863,35.85767 15.97754,31.32349  "/>
</g>
<g enable-background="new    ">
	<defs>
		<path id="SVGID_80_" enable-background="new    " d="M14.50195,64.01392l-15.87842,4.53467    c1.25146-3.56348-0.10791-8.43701-3.01807-10.83398l15.87842-4.53467C14.39404,55.5769,15.75342,60.45044,14.50195,64.01392z"/>
	</defs>
	<clipPath id="SVGID_81_">
		<use xlink:href="#SVGID_80_" overflow="visible"/>
	</clipPath>
	<g clip-path="url(#SVGID_81_)" enable-background="new    ">
		<path fill="#494949" d="M14.50195,64.01392l-15.87842,4.53467c1.23926-3.52783-0.08105-8.33984-2.93115-10.76123l15.87842-4.53467    C14.4209,55.67407,15.74121,60.48657,14.50195,64.01392"/>
		<path fill="#484848" d="M11.5708,53.25269l-15.87842,4.53467c-0.02881-0.02441-0.05811-0.04883-0.08691-0.07275l15.87842-4.53467    C11.5127,53.20386,11.54199,53.22827,11.5708,53.25269"/>
	</g>
</g>
<g>
	<polygon fill="#4A4A4A" points="11.48389,53.17993 -4.39453,57.7146 -6.31201,56.13501 9.56641,51.60034  "/>
</g>
<g enable-background="new    ">
	<defs>
		<path id="SVGID_82_" enable-background="new    " d="M9.56641,51.60034l-15.87842,4.53467    c-2.90967-2.39795-3.49561-6.80811-1.30225-9.80127l15.87842-4.53467C6.0708,44.79224,6.65674,49.20239,9.56641,51.60034z"/>
	</defs>
	<clipPath id="SVGID_83_">
		<use xlink:href="#SVGID_82_" overflow="visible"/>
	</clipPath>
	<g clip-path="url(#SVGID_83_)" enable-background="new    ">
		<path fill="#484848" d="M9.56641,51.60034l-15.87842,4.53467c-0.02686-0.02246-0.05371-0.04492-0.08008-0.06738l15.87842-4.53418    C9.5127,51.55591,9.53955,51.57788,9.56641,51.60034"/>
		<path fill="#494949" d="M9.48633,51.53345l-15.87842,4.53418c-2.78223-2.36279-3.37158-6.5918-1.35107-9.55127l15.87842-4.53467    C6.11475,44.94116,6.7041,49.17017,9.48633,51.53345"/>
		<path fill="#484848" d="M8.13525,41.98169l-15.87842,4.53467c0.04199-0.06152,0.08496-0.12256,0.12891-0.18262l15.87842-4.53467    C8.22021,41.85962,8.17725,41.92017,8.13525,41.98169"/>
	</g>
</g>
<g>
	<polygon fill="#4B4B4B" points="12.44336,72.15649 -3.43506,76.69116 -1.37646,68.54858 14.50195,64.01392  "/>
</g>
<g enable-background="new    ">
	<defs>
		<path id="SVGID_84_" enable-background="new    " d="M37.85449,152.65942c-5.29297,1.51172-10.58594,3.02344-15.87891,4.53516    c-0.33252,0.09473-0.67236,0.16211-1.01563,0.20215c-1.68457,0.19336-3.45801-0.28613-4.91309-1.48535l15.87842-4.53418    c1.45508,1.19922,3.22852,1.67871,4.91309,1.48438C37.18164,152.82251,37.52148,152.75513,37.85449,152.65942z"/>
	</defs>
	<clipPath id="SVGID_85_">
		<use xlink:href="#SVGID_84_" overflow="visible"/>
	</clipPath>
	<g clip-path="url(#SVGID_85_)" enable-background="new    ">
		<path fill="#484848" d="M37.85449,152.65942l-15.87891,4.53516c-0.33252,0.09473-0.67236,0.16211-1.01563,0.20215    c-1.68457,0.19336-3.45801-0.28613-4.91309-1.48535l15.87842-4.53418c1.45508,1.19922,3.22852,1.67871,4.91309,1.48438    C37.18164,152.82251,37.52148,152.75513,37.85449,152.65942"/>
	</g>
</g>
<g>
	<polygon fill="#4B4B4B" points="21.68164,120.38696 5.80322,124.92114 1.63281,117.16919 17.51123,112.63501  "/>
</g>
<g enable-background="new    ">
	<defs>
		<path id="SVGID_86_" enable-background="new    " d="M21.52686,131.62231l-15.87842,4.53418    c2.20313-2.98438,2.26953-8.04004,0.15479-11.23535l15.87842-4.53418C23.79639,123.5813,23.72998,128.63696,21.52686,131.62231z"/>
	</defs>
	<clipPath id="SVGID_87_">
		<use xlink:href="#SVGID_86_" overflow="visible"/>
	</clipPath>
	<g clip-path="url(#SVGID_87_)" enable-background="new    ">
		<path fill="#484848" d="M21.52686,131.62231l-15.87842,4.53418c0.05225-0.07031,0.10352-0.14258,0.15332-0.21582l15.87842-4.53516    C21.63037,131.47876,21.5791,131.55103,21.52686,131.62231"/>
		<path fill="#494949" d="M21.68018,131.40552l-15.87842,4.53516c2.05176-3.00781,2.06592-7.90039,0.00146-11.01953    l15.87842-4.53418C23.74609,123.50513,23.73193,128.39771,21.68018,131.40552"/>
	</g>
</g>
<g enable-background="new    ">
	<defs>
		<path id="SVGID_88_" enable-background="new    " d="M5.84766,79.51245C0.81934,80.94849-4.20898,82.38452-9.2373,83.82056    c-0.23779,0.06787-0.55566,0.15869-0.79395,0.22656c3.18457-0.90918,6.02881-3.99561,6.59619-7.35596l15.87842-4.53467    C11.87598,75.51733,9.03174,78.60327,5.84766,79.51245z"/>
	</defs>
	<clipPath id="SVGID_89_">
		<use xlink:href="#SVGID_88_" overflow="visible"/>
	</clipPath>
	<g clip-path="url(#SVGID_89_)" enable-background="new    ">
		<path fill="#4B4B4B" d="M5.84766,79.51245l-15.87891,4.53467c0.18896-0.05371,0.37646-0.11523,0.5625-0.18408l15.87842-4.53467    C6.22363,79.39722,6.03613,79.45874,5.84766,79.51245"/>
		<path fill="#4A4A4A" d="M6.40967,79.32837l-15.87842,4.53467c0.2334-0.08643,0.46484-0.18457,0.69238-0.29297L7.10205,79.0354    C6.87451,79.1438,6.64307,79.24194,6.40967,79.32837"/>
		<path fill="#4A4A4A" d="M7.10205,79.0354l-15.87842,4.53467c0.30615-0.146,0.60645-0.31104,0.89844-0.49365l15.87842-4.53467    C7.7085,78.72437,7.4082,78.8894,7.10205,79.0354"/>
		<path fill="#494949" d="M8.00049,78.54175l-15.87842,4.53467c0.8833-0.55176,1.69434-1.26172,2.37891-2.07813l15.87842-4.53467    C9.69482,77.28003,8.88379,77.98999,8.00049,78.54175"/>
		<path fill="#484848" d="M10.37939,76.46362l-15.87842,4.53467c0.21582-0.25732,0.41895-0.5249,0.60791-0.80176l15.87842-4.53467    C10.79834,75.93872,10.59521,76.2063,10.37939,76.46362"/>
		<path fill="#494949" d="M10.9873,75.66187l-15.87842,4.53467c0.72949-1.06787,1.24707-2.26807,1.45605-3.50537l15.87842-4.53467    C12.23438,73.3938,11.7168,74.59399,10.9873,75.66187"/>
	</g>
</g>
<g>
	<polygon fill="#494949" points="20.3999,133.15356 4.52148,137.68774 5.64844,136.15649 21.52686,131.62231  "/>
</g>
<g>
	<polygon fill="#4A4A4A" points="31.92529,151.3772 16.04688,155.91138 5.82373,147.4895 21.70215,142.95532  "/>
</g>
<g enable-background="new    ">
	<defs>
		<path id="SVGID_90_" enable-background="new    " d="M21.70215,142.95532L5.82373,147.4895    c-2.90967-2.39746-3.49561-6.80762-1.30225-9.80176l15.87842-4.53418C18.20654,136.14673,18.79248,140.55786,21.70215,142.95532z"/>
	</defs>
	<clipPath id="SVGID_91_">
		<use xlink:href="#SVGID_90_" overflow="visible"/>
	</clipPath>
	<g clip-path="url(#SVGID_91_)" enable-background="new    ">
		<path fill="#484848" d="M21.70215,142.95532L5.82373,147.4895c-0.02734-0.02246-0.0542-0.04492-0.08057-0.06738l15.87842-4.53418    C21.64844,142.9104,21.6748,142.93286,21.70215,142.95532"/>
		<path fill="#494949" d="M21.62158,142.88794l-15.87842,4.53418c-2.78223-2.3623-3.37109-6.5918-1.35059-9.55176l15.87842-4.53418    C18.25049,136.29517,18.83936,140.52466,21.62158,142.88794"/>
		<path fill="#484848" d="M20.271,133.33618l-15.87842,4.53418c0.04199-0.06152,0.08496-0.12207,0.12891-0.18262l15.87842-4.53418    C20.35596,133.21411,20.31299,133.27466,20.271,133.33618"/>
	</g>
</g>
<g enable-background="new    ">
	<defs>
		<path id="SVGID_92_" enable-background="new    " d="M17.51123,112.63501l-15.87842,4.53418    c-1.54883-3.52148-5.78125-6.05664-9.39014-5.6416l15.87842-4.53418C11.72998,106.57837,15.9624,109.11255,17.51123,112.63501z"/>
	</defs>
	<clipPath id="SVGID_93_">
		<use xlink:href="#SVGID_92_" overflow="visible"/>
	</clipPath>
	<g clip-path="url(#SVGID_93_)" enable-background="new    ">
		<path fill="#494949" d="M17.51123,112.63501l-15.87842,4.53418c-0.54834-1.24707-1.43359-2.37109-2.5083-3.2832l15.87842-4.53516    C16.07764,110.26392,16.96289,111.38794,17.51123,112.63501"/>
		<path fill="#484848" d="M15.00293,109.35083l-15.87842,4.53516c-1.96045-1.66406-4.55127-2.62695-6.88184-2.3584l15.87842-4.53418    C10.45215,106.72485,13.04297,107.68677,15.00293,109.35083"/>
	</g>
</g>
<g>
	<polygon fill="#484848" points="8.12109,106.99341 -7.75732,111.52759 -9.75195,111.75708 6.12646,107.22192  "/>
</g>
<g>
	<radialGradient id="SVGID_94_" cx="71.92676" cy="85.83325" r="77.08356" gradientUnits="userSpaceOnUse">
		<stop offset="0.07143" style="stop-color:#939393"/>
		<stop offset="0.19231" style="stop-color:#FFFFFF"/>
		<stop offset="0.5" style="stop-color:#939393"/>
		<stop offset="0.5989" style="stop-color:#BBBBBB"/>
		<stop offset="0.74725" style="stop-color:#B7B7B7"/>
		<stop offset="0.80337" style="stop-color:#D6D6D6"/>
		<stop offset="1" style="stop-color:#939598"/>
	</radialGradient>
	<path fill="url(#SVGID_94_)" d="M137.73535,64.44458c3.6084-0.41504,6.98145,2.36328,7.48828,6.17676l1.77539,13.36523   c0.50684,3.81348-2.03809,7.27246-5.64648,7.68652l-2.00293,0.23047c-3.6084,0.41504-7.0498,3.83203-7.63184,7.59961   l-2.01563,8.46289c-1.21484,3.57715,0.17188,8.46582,3.09082,10.8623l1.49316,1.23047   c2.91113,2.40625,3.49707,6.81738,1.30176,9.80078l-7.71094,10.48535c-1.09863,1.49219-2.69238,2.3584-4.37695,2.55176   c-1.68555,0.19434-3.46094-0.28516-4.9209-1.4834l-1.37695-1.13477c-1.83789-1.51367-4.43066-2.1543-6.83691-1.87695   c-1.40527,0.16113-2.74707,0.63574-3.83691,1.42969l-7.37988,4.32324c-3.29492,1.55469-5.57813,5.94238-5.07227,9.74707   l0.22949,1.72852c0.50684,3.8125-2.03711,7.27246-5.64648,7.6875l-12.67676,1.45703   c-3.61768,0.41602-6.98975-2.3623-7.49658-6.17578l-0.22949-1.72852c-0.50537-3.80469-3.86816-7.54297-7.46143-8.30664   l-8.29785-2.51953c-1.26514-0.52441-2.68994-0.67969-4.09521-0.51758c-2.40674,0.27637-4.75488,1.48438-6.14014,3.36816   l-1.03955,1.41309c-1.10205,1.49316-2.69873,2.36035-4.38379,2.55371c-1.68457,0.19434-3.45801-0.28516-4.91309-1.48438   l-10.22314-8.42188c-2.90967-2.39746-3.49561-6.80859-1.30225-9.80176l1.12695-1.53125   c2.20313-2.98535,2.26953-8.04102,0.15479-11.23535l-4.17041-7.75195c-1.54883-3.52246-5.78125-6.05664-9.39014-5.6416   l-1.99463,0.22852c-3.61719,0.41602-6.98975-2.3623-7.49609-6.17578l-1.77539-13.36523   c-0.50684-3.81348,2.03711-7.27148,5.6543-7.6875l2.20605-0.25391c3.61719-0.41602,7.09424-3.82813,7.72803-7.58301   l2.05859-8.14258c1.25146-3.56348-0.10791-8.43701-3.01807-10.83398l-1.91748-1.57959   c-2.90967-2.39795-3.49561-6.80811-1.30225-9.80127l7.71338-10.47559c1.10059-1.49756,2.69678-2.36621,4.38184-2.56006   c1.68555-0.19385,3.45898,0.2876,4.91455,1.49072l2.03174,1.66602c1.85059,1.52979,4.47217,2.17773,6.90137,1.89844   c1.3916-0.16016,2.7207-0.62451,3.80469-1.40137l6.82324-3.93262c3.29541-1.5459,5.57959-5.9248,5.07275-9.73828l-0.35986-2.7085   c-0.50635-3.81396,2.03711-7.27246,5.6543-7.68799l12.67773-1.45801c3.60889-0.41504,6.98145,2.36328,7.4873,6.17676   l0.36035,2.70898c0.50684,3.81348,3.86816,7.54297,7.46875,8.2959l7.65527,2.26807c1.25195,0.5083,2.66016,0.65771,4.05078,0.49805   c2.42871-0.2793,4.80273-1.50146,6.20313-3.40527l1.52539-2.07471c1.10254-1.49756,2.69824-2.36621,4.38379-2.56006   c1.68457-0.19385,3.45801,0.2876,4.91406,1.49072l10.22168,8.41357c2.91113,2.40674,3.49707,6.81689,1.30176,9.80127   l-1.44629,1.9668c-2.19531,2.98389-2.23828,8.01904-0.0918,11.19141l4.12793,7.43164c1.59668,3.49805,5.8623,6.02002,9.47949,5.604   L137.73535,64.44458z M77.84082,127.67017c21.67773-2.49219,36.7959-23.0459,33.75977-45.90039   S88.52441,42.41284,66.84619,44.90552c-21.67871,2.49268-36.78857,23.03711-33.75293,45.89063   C36.12939,113.65063,56.16211,130.16333,77.84082,127.67017"/>
</g>
<g enable-background="new    ">
	<defs>
		<path id="SVGID_95_" enable-background="new    " d="M-14.36914,84.72632c5.29297-1.51123,10.58545-3.02295,15.87842-4.53467    c-3.07324,0.87793-5.11279,4.03809-4.6543,7.48926l-15.87842,4.53516C-19.48193,88.76489-17.44238,85.60425-14.36914,84.72632z"/>
	</defs>
	<clipPath id="SVGID_96_">
		<use xlink:href="#SVGID_95_" overflow="visible"/>
	</clipPath>
	<g clip-path="url(#SVGID_96_)" enable-background="new    ">
		<path fill="#494949" d="M-3.14502,87.68091l-15.87842,4.53516c-0.2417-1.82031,0.21094-3.55957,1.14404-4.92529l15.87842-4.53467    C-2.93408,84.12231-3.38672,85.86108-3.14502,87.68091"/>
		<path fill="#484848" d="M-2.00098,82.7561l-15.87842,4.53467c0.18506-0.271,0.38867-0.52734,0.60986-0.7666l15.87842-4.53467    C-1.6123,82.22876-1.81592,82.48511-2.00098,82.7561"/>
		<path fill="#494949" d="M-1.39111,81.9895l-15.87842,4.53467c0.38721-0.41943,0.82764-0.78662,1.31152-1.08984l15.87842-4.53467    C-0.56348,81.20288-1.00391,81.57007-1.39111,81.9895"/>
		<path fill="#4A4A4A" d="M-0.07959,80.89966l-15.87842,4.53467c0.20264-0.12646,0.4126-0.24219,0.62988-0.3457l15.87842-4.53467    C0.33301,80.65747,0.12305,80.77319-0.07959,80.89966"/>
		<path fill="#4A4A4A" d="M0.55029,80.55396l-15.87842,4.53467c0.16699-0.07959,0.33838-0.15186,0.51367-0.21631l15.87842-4.53467    C0.88867,80.40259,0.71729,80.47485,0.55029,80.55396"/>
		<path fill="#4B4B4B" d="M1.06396,80.33765l-15.87842,4.53467c0.14551-0.0542,0.29443-0.10254,0.44531-0.146l15.87842-4.53467    C1.3584,80.23511,1.20947,80.28345,1.06396,80.33765"/>
	</g>
</g>
<g>
	<polygon fill="#4C4C4C" points="-1.36963,101.04614 -17.24805,105.5813 -19.02344,92.21606 -3.14502,87.68091  "/>
</g>
<g enable-background="new    ">
	<defs>
		<path id="SVGID_97_" enable-background="new    " d="M6.12646,107.22192l-15.87842,4.53516    c-3.61719,0.41602-6.98975-2.36328-7.49609-6.17578l15.87842-4.53516C-0.86328,104.85962,2.50928,107.63794,6.12646,107.22192z"/>
	</defs>
	<clipPath id="SVGID_98_">
		<use xlink:href="#SVGID_97_" overflow="visible"/>
	</clipPath>
	<g clip-path="url(#SVGID_98_)" enable-background="new    ">
		<path fill="#484848" d="M6.12646,107.22192l-15.87842,4.53516c-1.84473,0.21191-3.62598-0.40723-4.99561-1.57031l15.87842-4.53418    C2.50049,106.81567,4.28174,107.43481,6.12646,107.22192"/>
		<path fill="#494949" d="M1.13086,105.65259l-15.87842,4.53418c-1.31592-1.11719-2.25244-2.7373-2.50049-4.60547l15.87842-4.53516    C-1.12158,102.91528-0.18506,104.5354,1.13086,105.65259"/>
	</g>
</g>
</svg>