<svg xmlns="http://www.w3.org/2000/svg" width="13" height="13" viewBox="0 0 13 13"><title>No</title><g fill="none"><path fill="#BC0303" d="M3 1v1h1v1h1v1h3V3h1V2h1V1h2v2h-1v1h-1v1H9v1H8v1h1v1h1v1h1v1h1v2h-2v-1H9v-1H8V9H7V8H6v1H5v1H4v1H3v1H1v-2h1V9h1V8h1V7h1V6H4V5H3V4H2V3H1V1z"/><path fill="#320404" d="M13 10v3h-3v-1h2v-2h1zM0 13v-1h3v1H0zm10-2v1H9v-1h1zm-6 0v1H3v-1h1zm5-1v1H8v-1h1zm-4 0v1H4v-1h1zm7-1v1h-1V9h1zM8 9v1H7V9h1zM6 9v1H5V9h1zm5-1v1h-1V8h1zM7 8v1H6V8h1zm3-1v1H9V7h1zM9 6v1H8V6h1zM4 5v1H3V5h1zm6 0v1H9V5h1zM3 4v1H2V4h1zm8 0v1h-1V4h1zM2 3v1H1V3h1zm4 0v1H5V3h1zm6 0v1h-1V3h1zM5 2v1H4V2h1zm8-2v3h-1V0h1zM4 1v1H3V1h1z"/><path fill="#6C0303" d="M1 10v3H0v-3h1zm1-1v1H1V9h1zm1-1v1H2V8h1zm1-1v1H3V7h1zm1-1v1H4V6h1zm3-3v1H7V3h1zM3 0v1H1v2H0V0h3zm6 2v1H8V2h1zm1-1v1H9V1h1zm2-1v1h-2V0h2z"/></g></svg>