<svg xmlns="http://www.w3.org/2000/svg" width="14" height="12" viewBox="0 0 14 12"><title>Yes</title><g fill="none"><path fill="#037E03" d="M7 10v1H6v-1h1zm1-2v1H7V8h1zM4 5v1h1v1h1v1H4V7H3V6H1v1H0V6h1V5h3zm3 0v2H6V5h1zm1-2v2H7V3h1zm3 1v1h-1V4h1zm2-1v1h-2V3h2zM9 2v1H8V2h1zm1-1v1H9V1h1zm3-1v1h-3V0h3z"/><path fill="#03B803" d="M13 1v2h-2v1h-1v2H9v1H8v1H7v2H5V9H4V8h2V7h1V5h1V3h1V2h1V1h3zM4 7v1H3V7h1zM3 6v1H1V6h2z"/><path fill="#033903" d="M8 9v3H6v-1h1V9h1zm-2 1v1H5v-1h1zM5 9v1H4V9h1zM4 8v1H3V8h1zm5-1v2H8V7h1zM3 7v1H1V7h2zm7-1v1H9V6h1zm1-1v1h-1V5h1zm2-1v1h-2V4h2zm1-3v3h-1V1h1z"/></g></svg>